<mxfile host="65bd71144e">
    <diagram id="Mj9ZylbfG0xPjbZfdVbc" name="Page-1">
        <mxGraphModel dx="2872" dy="1580" grid="1" gridSize="10" guides="1" tooltips="1" connect="1" arrows="1" fold="1" page="1" pageScale="1" pageWidth="850" pageHeight="1100" math="0" shadow="0">
            <root>
                <mxCell id="0"/>
                <mxCell id="1" parent="0"/>
                <mxCell id="5" style="rounded=0;orthogonalLoop=1;jettySize=auto;html=1;entryX=1;entryY=0.5;entryDx=0;entryDy=0;fontSize=18;" parent="1" source="2" target="20" edge="1">
                    <mxGeometry relative="1" as="geometry">
                        <mxPoint x="530" y="260" as="targetPoint"/>
                    </mxGeometry>
                </mxCell>
                <mxCell id="8" style="rounded=0;orthogonalLoop=1;jettySize=auto;html=1;entryX=1;entryY=0.5;entryDx=0;entryDy=0;exitX=0;exitY=0.5;exitDx=0;exitDy=0;fontSize=18;" parent="1" source="20" target="7" edge="1">
                    <mxGeometry relative="1" as="geometry">
                        <mxPoint x="450" y="260" as="sourcePoint"/>
                    </mxGeometry>
                </mxCell>
                <mxCell id="21" value="UI" style="swimlane;fontSize=18;" parent="1" vertex="1">
                    <mxGeometry x="-600" y="50" width="430" height="650" as="geometry">
                        <mxRectangle x="-750" y="40" width="40" height="23" as="alternateBounds"/>
                    </mxGeometry>
                </mxCell>
                <mxCell id="24" value="Mobile Front" style="swimlane;fontSize=18;" parent="21" vertex="1">
                    <mxGeometry x="100" y="390" width="160" height="140" as="geometry"/>
                </mxCell>
                <mxCell id="7" value="Web Front" style="swimlane;fontSize=18;" parent="21" vertex="1">
                    <mxGeometry x="140" y="50" width="170" height="115" as="geometry"/>
                </mxCell>
                <mxCell id="22" value="Service" style="swimlane;fontSize=18;" parent="1" vertex="1">
                    <mxGeometry x="20" y="40" width="800" height="1020" as="geometry"/>
                </mxCell>
                <mxCell id="11" value="Rabbit MQ" style="whiteSpace=wrap;html=1;aspect=fixed;fontSize=18;" parent="22" vertex="1">
                    <mxGeometry x="410" y="380" width="80" height="80" as="geometry"/>
                </mxCell>
                <mxCell id="20" value="Account Service" style="swimlane;fontSize=18;" parent="22" vertex="1">
                    <mxGeometry x="150" y="70" width="430" height="200" as="geometry"/>
                </mxCell>
                <mxCell id="10" value="Main API includes account operations&amp;nbsp;&lt;br style=&quot;font-size: 18px;&quot;&gt;-Login &lt;br style=&quot;font-size: 18px;&quot;&gt;-Register&lt;br style=&quot;font-size: 18px;&quot;&gt;-CRUD&lt;br style=&quot;font-size: 18px;&quot;&gt;-Email" style="text;html=1;align=center;verticalAlign=middle;resizable=0;points=[];autosize=1;strokeColor=none;fontSize=18;" parent="20" vertex="1">
                    <mxGeometry x="30" y="37.5" width="320" height="120" as="geometry"/>
                </mxCell>
                <mxCell id="17" value="Elastic Search" style="rounded=0;whiteSpace=wrap;html=1;fontSize=18;" parent="22" vertex="1">
                    <mxGeometry x="425" y="560" width="120" height="60" as="geometry"/>
                </mxCell>
                <mxCell id="18" value="Searching functionalities" style="text;html=1;align=center;verticalAlign=middle;resizable=0;points=[];autosize=1;strokeColor=none;fontSize=18;" parent="22" vertex="1">
                    <mxGeometry x="380" y="510" width="210" height="30" as="geometry"/>
                </mxCell>
                <mxCell id="15" value="Messaging done via RabbitMQ&lt;br style=&quot;font-size: 18px;&quot;&gt;" style="text;html=1;align=center;verticalAlign=middle;resizable=0;points=[];autosize=1;strokeColor=none;fontSize=18;" parent="22" vertex="1">
                    <mxGeometry x="360" y="325" width="260" height="30" as="geometry"/>
                </mxCell>
                <mxCell id="25" value="Data" style="swimlane;fontSize=18;" parent="1" vertex="1">
                    <mxGeometry x="920" y="30" width="590" height="1020" as="geometry"/>
                </mxCell>
                <mxCell id="2" value="User&lt;br style=&quot;font-size: 18px;&quot;&gt;Skill&lt;br style=&quot;font-size: 18px;&quot;&gt;DB" style="shape=cylinder3;whiteSpace=wrap;html=1;boundedLbl=1;backgroundOutline=1;size=15;fontSize=18;" parent="25" vertex="1">
                    <mxGeometry x="170" y="80" width="155" height="170" as="geometry"/>
                </mxCell>
            </root>
        </mxGraphModel>
    </diagram>
</mxfile>